<svg width="243" height="58" viewBox="0 0 243 58" fill="none" xmlns="http://www.w3.org/2000/svg">
<g id="Layer_1" clip-path="url(#clip0_109_483)">
<path id="Vector" d="M151.388 17.1554C149.029 20.2819 146.669 23.4085 144.229 26.6493C145.029 27.3431 145.927 27.3758 146.686 26.788C148.914 25.0738 150.808 26.0697 152.571 27.4819C154.449 29.0003 152.914 30.6982 152.596 32.3064C152.082 34.9268 150.759 37.3758 150.735 40.5921C154.269 38.6493 157.347 36.8697 158.514 32.9921C159.69 29.0819 162.449 26.6411 166.049 24.9431C167.559 24.2329 168.727 24.4942 169.6 25.7513C170.604 27.1962 168.89 27.5391 168.318 28.2574C165.592 31.6533 163.306 35.1636 163.788 40.2329C166.302 39.0738 167.6 37.6289 167.935 35.2452C168.139 33.784 168.441 32.2738 169.053 30.9595C169.665 29.6534 170.073 27.2615 172 27.9799C173.616 28.584 174.988 30.3472 174.498 32.6166C174.302 33.5064 174.155 34.4044 173.935 35.5472C179.38 34.788 180.359 30.6738 181.192 26.7962C181.894 23.5146 183.347 23.3187 186.008 24.4942C187.69 25.237 188.18 25.9391 187.412 27.784C186.335 30.3636 185.02 32.9268 184.841 36.7391C188.808 33.286 190.604 29.3431 192.498 25.4411C192.955 24.5023 192.563 22.1187 194.882 23.335C196.457 24.1595 198.539 24.6574 197.69 27.4329C196.71 30.6248 195.404 33.784 195.404 37.5227C197.976 36.8697 199.143 34.6003 201.078 33.5962C206.147 30.9513 208.204 26.3799 209.665 21.286C209.861 20.6166 210.163 19.2534 211.11 19.7758C212.792 20.7064 215.069 21.4248 215.045 23.9227C215.004 27.6942 216.62 31.2778 215.804 35.735C218.784 33.8329 220.784 32.2493 221.796 29.3023C223.241 25.1227 226.375 22.3227 230.531 20.7554C233.657 19.5717 236.245 20.4778 237.894 23.2778C239.518 26.037 237.184 27.5717 235.437 28.9431C233.527 30.437 231.339 31.5799 229.282 32.8942C228.375 33.4738 227.257 34.037 227.722 35.4003C228.237 36.9268 229.559 36.8452 230.776 36.5513C234.637 35.6289 237.535 33.2207 240.163 30.3962C240.751 29.7676 241.314 28.4125 242.367 29.2615C243.788 30.3962 242.237 31.1472 241.584 31.8003C238.302 35.0819 234.718 37.8574 230.237 39.4901C225.453 41.2289 222.767 38.9023 220.506 35.1717C216.906 37.1962 214.4 41.4738 209.592 40.5676C207.747 40.2166 205.616 39.588 204.955 37.188C210.531 36.1595 210.571 36.086 209.804 28.6248C207.698 29.9717 205.763 30.9758 204.196 33.0166C202.245 35.5554 199.584 37.5962 197.086 39.6778C195.567 40.9431 193.951 42.4534 191.624 41.2942C189.282 40.135 189.698 37.9717 189.714 35.3023C188.18 37.0085 187.094 38.4207 185.796 39.5962C184.376 40.886 183.363 43.2044 180.816 42.3472C178.171 41.4574 177.853 39.1717 178.237 36.6574C174.18 37.9227 170.735 39.2942 167.608 41.8574C163.837 44.9513 161.314 44.4207 158.31 40.5187C157.224 39.1064 156.759 39.2044 155.592 40.2085C154.057 41.5309 152.457 42.8942 150.661 43.7676C147.486 45.3187 144.539 43.1636 144.922 39.6615C145.159 37.5391 145.657 35.4329 146.229 33.3758C146.457 32.5758 146.971 31.7513 146.122 31.2778C145.224 30.7799 144.539 31.686 144.196 32.3391C142.498 35.5636 140.522 38.6329 139.2 42.0778C138.718 43.335 139.51 46.3146 136.457 45.3268C134.122 44.5758 132.645 43.2289 133.078 40.1921C134.408 30.8125 137.69 22.1105 141.624 13.6044C143.51 9.53907 145.714 5.66152 148.629 2.19213C150.922 -0.534403 153.078 -0.330321 155.527 1.91458C156.882 3.16356 157.461 4.43703 156.686 6.22478C155.461 9.04927 154.302 11.8983 153.11 14.7309C152.155 15.2697 151.804 16.2329 151.388 17.1554ZM146.016 17.735C150.963 12.9431 153.535 7.27784 152.808 3.17988C149.624 7.80029 148.033 12.8534 146.016 17.735ZM227.959 29.9717C229.992 30.0125 230.62 28.8615 231.469 28.1023C232.612 27.0819 233.249 25.7758 233.249 24.2411C233.249 24.037 232.588 23.5962 232.367 23.6697C230.98 24.1187 230.408 25.3758 229.771 26.535C229.224 27.5309 228.71 28.5513 227.959 29.9717Z" fill="#FBEAD2"/>
<path id="Vector_2" d="M113.118 3.25342C119.216 5.82485 119.241 5.89832 116.898 13.9555C116.376 14.9922 115.853 16.0371 115.322 17.0738C111.494 22.6657 107.698 28.2738 103.151 33.3432C102.441 34.135 100.939 35.5228 102.016 36.3555C103.649 37.6126 104.082 35.3351 104.849 34.4697C106.465 32.6412 107.918 30.6738 109.91 29.1963C111.461 28.0534 112.873 27.4657 114.555 29.1391C116.327 30.9024 115.045 32.0779 113.976 33.2697C112.71 34.682 111.331 35.9881 109.984 37.3269C109.11 38.2004 107.29 38.8126 109.004 40.4208C110.196 41.5391 111.192 43.5718 113.339 41.8004C115.11 40.331 116.89 38.8697 118.637 37.3677C119.167 36.9106 119.698 36.3636 120.376 36.8861C121.306 37.5963 120.743 38.3065 120.155 38.9187C117.592 41.5391 114.963 44.0942 111.894 46.1432C109.763 47.5636 107.722 47.2697 105.984 45.5718C105.037 44.6412 104.416 43.3759 103.535 42.0861C99.0531 48.7636 97.502 48.5595 94.1224 41.8248C91.8449 43.7187 89.6816 45.784 87.2571 47.4738C84.049 49.7106 81.8857 48.9432 81.102 45.2208C80.5796 42.7391 79.7633 43.4493 78.5061 44.4779C77.249 45.5146 76 46.5677 74.6612 47.4902C70.498 50.3636 69.0367 49.784 67.7143 44.633C64.702 46.7718 61.9102 49.1473 58.3592 50.2657C55.2735 51.2453 52.2449 51.4085 50.3102 48.4779C48.5878 45.8657 47.4531 46.7963 45.6653 48.2738C43.502 50.0534 41.502 53.0167 37.9918 50.4044C36.1878 49.0657 35.2163 47.5963 35.902 45.2126C37.0612 41.1881 38.0327 37.1065 39.102 33.0575C39.502 31.5473 40.6612 29.6697 37.4857 30.1024C36.9714 30.1759 36.2694 30.1514 36.3184 29.4004C36.351 28.9351 36.7347 28.0942 36.9714 28.0861C42.0653 28.0371 41.8939 23.5636 43.3714 20.5187C43.8612 19.4983 44.5225 18.6983 45.3633 18.0044C46.8735 17.2289 48.3429 16.3555 49.902 15.7024C51.1673 15.1718 51.9592 15.5963 51.698 17.1473C50.0571 19.8167 49.1837 22.7799 48.1306 26.1514H54.6041C54.0082 29.2616 51.8531 29.3432 49.8367 29.2616C47.5102 29.1636 46.5225 30.1187 45.9102 32.331C44.6122 37.0085 42.8082 41.5636 42.8 47.1555C45.902 45.4493 48.302 43.8738 49.4531 40.7146C51.1184 36.1187 54.2939 32.9351 59.0122 31.4004C62.1061 30.3881 64.3673 31.6371 65.8939 34.233C67.4694 36.9024 65.0939 38.2248 63.5592 39.5391C61.8286 41.0248 59.7796 42.1514 57.8204 43.3677C56.6694 44.0861 55.102 44.6248 55.7878 46.3473C56.5796 48.331 58.3918 47.5065 59.6653 47.082C64.6367 45.433 68.049 41.6697 71.2571 37.8248C73.551 35.0738 76.0571 32.6902 79.1102 30.8289C81.0122 29.6697 82.6449 29.784 84.5061 31.4167C80.9224 34.8697 76.1959 37.4412 75.1837 43.5799C79.1673 41.5963 81.4857 38.8044 83.9674 36.1595C84.6531 35.4248 84.7592 33.3024 86.4163 34.282C87.6408 35.0085 88.498 36.4208 88.1061 38.1187C87.6571 40.0616 86.5306 41.8983 87.3388 44.5595C91.0122 41.3269 95.0776 39.0493 95.8612 33.6534C96.702 27.8575 99.6571 22.7065 101.673 17.2697C102.718 16.0044 103.633 14.6738 103.869 13.0004C104.71 12.8371 104.906 12.2493 104.849 11.4983L104.833 11.5228C107.69 8.86974 109.616 5.29423 113.094 3.26158L113.118 3.25342ZM111.086 17.433C112.098 15.3759 113.11 13.3106 114.114 11.2534C114.465 10.5351 114.996 9.7024 113.943 9.20444C113.094 8.80444 112.367 9.26974 111.951 10.0861C110.718 12.4779 109.502 14.8779 108.286 17.2779C107.224 19.5963 106.163 21.9146 105.102 24.233C108.4 22.9514 109.576 20.0534 111.094 17.433H111.086ZM55.8367 41.5555C58.6449 39.9636 60.2041 38.5432 61.0449 36.3391C61.2653 35.7514 61.7796 35.0412 60.9959 34.5595C60.3347 34.1514 59.7061 34.5187 59.2327 35.0738C57.8449 36.6902 57.0286 38.6004 55.8367 41.5555ZM80.9878 42.8126C80.898 42.731 80.8 42.5677 80.702 42.5677C80.6122 42.5677 80.5224 42.7391 80.4327 42.8371C80.5714 42.9351 80.7102 43.0248 80.849 43.1228C80.8898 43.0248 80.9388 42.9269 80.9878 42.8126Z" fill="#FBEAD2"/>
<path id="Vector_3" d="M39.8041 13.8655C39.6326 14.9023 39.4612 15.939 39.2898 16.9757C37.4531 20.5921 35.7224 24.241 33.151 27.4655C31.0775 30.0614 29.8612 28.1839 28.2531 27.0574C26.4571 25.8084 26.4898 24.8859 28.0082 23.2859C30.6204 20.5267 32.5959 17.2533 34.2041 13.7921C35.3469 11.3267 34.8163 10.2655 31.9102 10.7308C24.1959 11.9716 12.049 23.5308 10.2694 31.2859C9.81224 33.2696 10.5633 33.6941 12.2939 33.4329C14.8408 33.0492 17.3959 32.6982 19.9429 32.3308C25.8122 31.4737 30.1877 36.8696 27.6898 42.3472C23.8449 50.7798 16.5633 55.2043 7.82857 56.9349C4.14693 57.6614 2.78367 53.6533 0.0734634 50.8859C4.84897 50.8369 8.72652 49.9635 12.449 48.4043C14.849 47.4002 17.1184 46.1757 19.0041 44.388C21.0612 42.4288 24.1469 40.0533 23.0449 37.4492C22.1796 35.4084 18.7265 37.7839 16.3837 37.7104C14.9143 37.6614 13.4367 38.241 11.9592 38.29C6.81632 38.4533 2.7102 33.7839 4.1551 28.9023C7.64897 17.09 15.5837 9.3594 27.3388 5.93083C33.2408 4.20838 38.0571 7.64511 39.7959 13.8655H39.8041Z" fill="#FBEAD2"/>
</g>
<defs>
<clipPath id="clip0_109_483">
<rect width="242.849" height="56.8408" fill="white" transform="translate(0.081604 0.184082)"/>
</clipPath>
</defs>
</svg>
